<svg width="1296" height="664" viewBox="0 0 1296 664" fill="none" xmlns="http://www.w3.org/2000/svg">
<g filter="url(#filter0_d_826_43)">
<rect x="231" y="26" width="940" height="600" fill="white" shape-rendering="crispEdges"/>
<rect x="231.5" y="26.5" width="939" height="599" stroke="#E5E5E5" shape-rendering="crispEdges"/>
<line x1="311.5" y1="77" x2="311.5" y2="587" stroke="#D9D9D9"/>
<line x1="506.5" y1="77" x2="506.5" y2="587" stroke="#D9D9D9"/>
<line x1="701.5" y1="77" x2="701.5" y2="587" stroke="#D9D9D9"/>
<line x1="896.5" y1="77" x2="896.5" y2="587" stroke="#D9D9D9"/>
<line x1="1091.5" y1="77" x2="1091.5" y2="587" stroke="#D9D9D9"/>
<rect width="951" height="100" transform="translate(317 182)" fill="url(#paint0_linear_826_43)"/>
<path d="M381.993 227.652H377.212C377.075 226.868 376.824 226.173 376.457 225.568C376.091 224.955 375.635 224.435 375.089 224.009C374.544 223.582 373.922 223.263 373.223 223.05C372.533 222.828 371.787 222.717 370.986 222.717C369.563 222.717 368.301 223.075 367.202 223.791C366.102 224.499 365.241 225.538 364.619 226.911C363.997 228.274 363.686 229.94 363.686 231.909C363.686 233.912 363.997 235.599 364.619 236.972C365.25 238.335 366.111 239.366 367.202 240.065C368.301 240.756 369.558 241.101 370.973 241.101C371.757 241.101 372.49 240.999 373.172 240.794C373.862 240.581 374.48 240.27 375.026 239.861C375.58 239.452 376.044 238.949 376.419 238.352C376.803 237.756 377.067 237.074 377.212 236.307L381.993 236.332C381.814 237.577 381.426 238.744 380.83 239.835C380.241 240.926 379.47 241.889 378.516 242.724C377.561 243.551 376.445 244.199 375.166 244.668C373.888 245.128 372.469 245.358 370.909 245.358C368.608 245.358 366.554 244.825 364.747 243.76C362.94 242.695 361.517 241.156 360.477 239.145C359.438 237.134 358.918 234.722 358.918 231.909C358.918 229.088 359.442 226.676 360.49 224.673C361.538 222.662 362.966 221.124 364.773 220.058C366.58 218.993 368.625 218.46 370.909 218.46C372.366 218.46 373.722 218.665 374.974 219.074C376.227 219.483 377.344 220.084 378.324 220.876C379.304 221.661 380.109 222.624 380.74 223.766C381.379 224.899 381.797 226.195 381.993 227.652ZM390.76 233.494V245H386.132V218.818H390.657V228.7H390.887C391.348 227.592 392.059 226.719 393.022 226.08C393.994 225.432 395.23 225.108 396.73 225.108C398.093 225.108 399.282 225.393 400.297 225.964C401.311 226.536 402.095 227.371 402.649 228.47C403.211 229.57 403.493 230.912 403.493 232.497V245H398.865V233.213C398.865 231.892 398.524 230.865 397.842 230.132C397.169 229.391 396.223 229.02 395.004 229.02C394.186 229.02 393.453 229.199 392.805 229.557C392.166 229.906 391.663 230.413 391.297 231.078C390.939 231.743 390.76 232.548 390.76 233.494ZM416.903 245.384C414.934 245.384 413.234 244.974 411.802 244.156C410.379 243.33 409.284 242.162 408.517 240.653C407.75 239.136 407.366 237.351 407.366 235.297C407.366 233.277 407.75 231.504 408.517 229.979C409.292 228.445 410.375 227.251 411.764 226.399C413.153 225.538 414.785 225.108 416.66 225.108C417.87 225.108 419.012 225.304 420.086 225.696C421.169 226.08 422.123 226.676 422.95 227.486C423.785 228.295 424.441 229.327 424.919 230.58C425.396 231.824 425.635 233.307 425.635 235.028V236.447H409.539V233.328H421.199C421.19 232.442 420.998 231.653 420.623 230.963C420.248 230.264 419.724 229.714 419.051 229.314C418.386 228.913 417.61 228.713 416.724 228.713C415.778 228.713 414.947 228.943 414.231 229.403C413.515 229.855 412.957 230.452 412.556 231.193C412.164 231.926 411.964 232.732 411.956 233.609V236.332C411.956 237.474 412.164 238.455 412.582 239.273C413 240.082 413.583 240.705 414.333 241.139C415.083 241.565 415.961 241.778 416.967 241.778C417.64 241.778 418.25 241.685 418.795 241.497C419.341 241.301 419.814 241.016 420.214 240.641C420.615 240.266 420.917 239.801 421.122 239.247L425.443 239.733C425.17 240.875 424.65 241.872 423.883 242.724C423.125 243.568 422.153 244.224 420.968 244.693C419.784 245.153 418.429 245.384 416.903 245.384ZM438.115 245.384C436.155 245.384 434.472 244.953 433.065 244.092C431.668 243.232 430.589 242.043 429.831 240.526C429.081 239 428.706 237.244 428.706 235.259C428.706 233.264 429.089 231.504 429.857 229.979C430.624 228.445 431.706 227.251 433.104 226.399C434.51 225.538 436.172 225.108 438.089 225.108C439.683 225.108 441.094 225.402 442.321 225.99C443.557 226.57 444.541 227.392 445.274 228.457C446.007 229.514 446.425 230.75 446.527 232.165H442.104C441.925 231.219 441.499 230.43 440.825 229.8C440.161 229.161 439.27 228.841 438.153 228.841C437.207 228.841 436.376 229.097 435.661 229.608C434.945 230.111 434.386 230.835 433.986 231.781C433.594 232.727 433.398 233.861 433.398 235.182C433.398 236.52 433.594 237.67 433.986 238.634C434.378 239.588 434.928 240.325 435.635 240.845C436.351 241.357 437.19 241.612 438.153 241.612C438.835 241.612 439.445 241.484 439.982 241.229C440.527 240.964 440.983 240.585 441.349 240.091C441.716 239.597 441.967 238.996 442.104 238.288H446.527C446.416 239.678 446.007 240.909 445.3 241.983C444.592 243.048 443.629 243.884 442.411 244.489C441.192 245.085 439.76 245.384 438.115 245.384ZM454.546 238.838L454.533 233.251H455.275L462.331 225.364H467.739L459.059 235.028H458.1L454.546 238.838ZM450.327 245V218.818H454.955V245H450.327ZM462.651 245L456.259 236.064L459.378 232.804L468.186 245H462.651ZM478.708 245.384C476.739 245.384 475.039 244.974 473.607 244.156C472.184 243.33 471.088 242.162 470.321 240.653C469.554 239.136 469.171 237.351 469.171 235.297C469.171 233.277 469.554 231.504 470.321 229.979C471.097 228.445 472.179 227.251 473.569 226.399C474.958 225.538 476.59 225.108 478.465 225.108C479.675 225.108 480.817 225.304 481.891 225.696C482.973 226.08 483.928 226.676 484.755 227.486C485.59 228.295 486.246 229.327 486.723 230.58C487.201 231.824 487.439 233.307 487.439 235.028V236.447H471.344V233.328H483.003C482.995 232.442 482.803 231.653 482.428 230.963C482.053 230.264 481.529 229.714 480.855 229.314C480.191 228.913 479.415 228.713 478.529 228.713C477.583 228.713 476.752 228.943 476.036 229.403C475.32 229.855 474.762 230.452 474.361 231.193C473.969 231.926 473.769 232.732 473.76 233.609V236.332C473.76 237.474 473.969 238.455 474.387 239.273C474.804 240.082 475.388 240.705 476.138 241.139C476.888 241.565 477.766 241.778 478.772 241.778C479.445 241.778 480.054 241.685 480.6 241.497C481.145 241.301 481.618 241.016 482.019 240.641C482.419 240.266 482.722 239.801 482.926 239.247L487.248 239.733C486.975 240.875 486.455 241.872 485.688 242.724C484.929 243.568 483.958 244.224 482.773 244.693C481.588 245.153 480.233 245.384 478.708 245.384ZM498.641 245.345C497.099 245.345 495.718 244.949 494.499 244.156C493.281 243.364 492.317 242.213 491.61 240.705C490.903 239.196 490.549 237.364 490.549 235.207C490.549 233.026 490.907 231.185 491.623 229.685C492.347 228.176 493.323 227.038 494.55 226.271C495.778 225.496 497.146 225.108 498.654 225.108C499.805 225.108 500.751 225.304 501.492 225.696C502.234 226.08 502.822 226.544 503.256 227.089C503.691 227.626 504.028 228.134 504.266 228.611H504.458V218.818H509.099V245H504.548V241.906H504.266C504.028 242.384 503.683 242.891 503.231 243.428C502.779 243.956 502.183 244.408 501.441 244.783C500.7 245.158 499.766 245.345 498.641 245.345ZM499.933 241.548C500.913 241.548 501.748 241.284 502.438 240.756C503.129 240.219 503.653 239.473 504.011 238.518C504.369 237.564 504.548 236.452 504.548 235.182C504.548 233.912 504.369 232.808 504.011 231.871C503.661 230.933 503.141 230.205 502.451 229.685C501.769 229.165 500.93 228.905 499.933 228.905C498.901 228.905 498.04 229.173 497.35 229.71C496.66 230.247 496.14 230.989 495.79 231.935C495.441 232.881 495.266 233.963 495.266 235.182C495.266 236.409 495.441 237.504 495.79 238.467C496.148 239.422 496.673 240.176 497.363 240.73C498.062 241.276 498.918 241.548 499.933 241.548ZM525.932 232.19V236H514.145V232.19H525.932ZM530.8 245V225.364H535.428V245H530.8ZM533.126 222.577C532.393 222.577 531.763 222.334 531.234 221.848C530.706 221.354 530.442 220.761 530.442 220.071C530.442 219.372 530.706 218.78 531.234 218.294C531.763 217.8 532.393 217.553 533.126 217.553C533.868 217.553 534.499 217.8 535.018 218.294C535.547 218.78 535.811 219.372 535.811 220.071C535.811 220.761 535.547 221.354 535.018 221.848C534.499 222.334 533.868 222.577 533.126 222.577ZM544.814 233.494V245H540.186V225.364H544.61V228.7H544.84C545.292 227.601 546.012 226.727 547 226.08C547.998 225.432 549.229 225.108 550.695 225.108C552.05 225.108 553.23 225.398 554.236 225.977C555.25 226.557 556.034 227.396 556.588 228.496C557.151 229.595 557.428 230.929 557.419 232.497V245H552.792V233.213C552.792 231.901 552.451 230.874 551.769 230.132C551.096 229.391 550.162 229.02 548.969 229.02C548.159 229.02 547.439 229.199 546.809 229.557C546.186 229.906 545.696 230.413 545.338 231.078C544.989 231.743 544.814 232.548 544.814 233.494Z" fill="white"/>
<rect width="243" height="100" transform="translate(317 330)" fill="#D9D9D9"/>
<path d="M381.622 375.332H377.634C377.48 374.48 377.195 373.73 376.777 373.082C376.359 372.435 375.848 371.885 375.243 371.433C374.638 370.982 373.96 370.641 373.21 370.411C372.469 370.18 371.68 370.065 370.845 370.065C369.337 370.065 367.986 370.445 366.793 371.203C365.608 371.962 364.67 373.074 363.98 374.54C363.298 376.006 362.957 377.795 362.957 379.909C362.957 382.04 363.298 383.838 363.98 385.304C364.67 386.77 365.612 387.878 366.805 388.628C367.999 389.378 369.341 389.753 370.832 389.753C371.659 389.753 372.443 389.642 373.185 389.42C373.935 389.19 374.612 388.854 375.217 388.411C375.822 387.967 376.334 387.426 376.751 386.787C377.178 386.139 377.472 385.398 377.634 384.562L381.622 384.575C381.409 385.862 380.996 387.047 380.382 388.129C379.777 389.203 378.997 390.132 378.043 390.916C377.097 391.692 376.014 392.293 374.795 392.719C373.577 393.145 372.247 393.358 370.807 393.358C368.54 393.358 366.52 392.821 364.747 391.747C362.974 390.665 361.577 389.118 360.554 387.107C359.54 385.095 359.033 382.696 359.033 379.909C359.033 377.114 359.544 374.714 360.567 372.712C361.589 370.7 362.987 369.158 364.76 368.084C366.533 367.001 368.548 366.46 370.807 366.46C372.196 366.46 373.491 366.661 374.693 367.061C375.903 367.453 376.99 368.033 377.953 368.8C378.916 369.558 379.713 370.487 380.344 371.587C380.974 372.678 381.401 373.926 381.622 375.332ZM391.757 393.435C390.512 393.435 389.387 393.205 388.382 392.744C387.376 392.276 386.579 391.598 385.991 390.712C385.412 389.825 385.122 388.739 385.122 387.452C385.122 386.344 385.335 385.432 385.761 384.716C386.187 384 386.762 383.433 387.487 383.016C388.211 382.598 389.021 382.283 389.916 382.07C390.811 381.857 391.723 381.695 392.652 381.584C393.828 381.447 394.782 381.337 395.515 381.251C396.248 381.158 396.781 381.009 397.113 380.804C397.446 380.599 397.612 380.267 397.612 379.807V379.717C397.612 378.601 397.297 377.736 396.666 377.122C396.044 376.509 395.115 376.202 393.879 376.202C392.592 376.202 391.578 376.487 390.836 377.058C390.103 377.621 389.596 378.247 389.315 378.938L385.723 378.119C386.149 376.926 386.771 375.963 387.589 375.23C388.416 374.489 389.366 373.952 390.44 373.619C391.514 373.278 392.643 373.108 393.828 373.108C394.612 373.108 395.443 373.202 396.321 373.389C397.207 373.568 398.034 373.901 398.801 374.386C399.576 374.872 400.211 375.567 400.706 376.47C401.2 377.365 401.447 378.528 401.447 379.96V393H397.714V390.315H397.561C397.314 390.81 396.943 391.295 396.449 391.773C395.954 392.25 395.319 392.646 394.544 392.962C393.768 393.277 392.839 393.435 391.757 393.435ZM392.588 390.366C393.645 390.366 394.548 390.158 395.298 389.74C396.056 389.322 396.632 388.777 397.024 388.104C397.424 387.422 397.625 386.693 397.625 385.918V383.386C397.488 383.523 397.224 383.651 396.832 383.77C396.449 383.881 396.01 383.979 395.515 384.064C395.021 384.141 394.539 384.213 394.071 384.281C393.602 384.341 393.21 384.392 392.895 384.435C392.153 384.528 391.475 384.686 390.862 384.908C390.257 385.129 389.771 385.449 389.404 385.866C389.047 386.276 388.868 386.821 388.868 387.503C388.868 388.449 389.217 389.165 389.916 389.651C390.615 390.128 391.505 390.366 392.588 390.366ZM410.361 381.341V393H406.538V373.364H410.207V376.56H410.45C410.902 375.52 411.609 374.685 412.572 374.054C413.544 373.423 414.767 373.108 416.241 373.108C417.58 373.108 418.751 373.389 419.757 373.952C420.763 374.506 421.543 375.332 422.097 376.432C422.651 377.531 422.928 378.891 422.928 380.51V393H419.105V380.97C419.105 379.547 418.734 378.435 417.993 377.634C417.251 376.824 416.233 376.419 414.938 376.419C414.051 376.419 413.263 376.611 412.572 376.994C411.891 377.378 411.349 377.94 410.949 378.682C410.557 379.415 410.361 380.301 410.361 381.341ZM436.325 393.396C434.425 393.396 432.788 392.966 431.416 392.105C430.053 391.236 429.004 390.038 428.271 388.513C427.538 386.987 427.172 385.24 427.172 383.271C427.172 381.277 427.547 379.517 428.297 377.991C429.047 376.457 430.104 375.26 431.467 374.399C432.831 373.538 434.438 373.108 436.287 373.108C437.778 373.108 439.108 373.385 440.276 373.939C441.443 374.484 442.385 375.251 443.101 376.24C443.825 377.229 444.256 378.384 444.392 379.705H440.672C440.467 378.784 439.999 377.991 439.266 377.327C438.541 376.662 437.57 376.33 436.351 376.33C435.286 376.33 434.352 376.611 433.551 377.173C432.759 377.727 432.141 378.52 431.697 379.551C431.254 380.574 431.033 381.784 431.033 383.182C431.033 384.614 431.25 385.849 431.685 386.889C432.119 387.929 432.733 388.734 433.526 389.305C434.327 389.876 435.268 390.162 436.351 390.162C437.075 390.162 437.732 390.03 438.32 389.766C438.916 389.493 439.415 389.105 439.815 388.602C440.224 388.099 440.51 387.494 440.672 386.787H444.392C444.256 388.057 443.842 389.19 443.152 390.188C442.462 391.185 441.537 391.969 440.378 392.54C439.227 393.111 437.876 393.396 436.325 393.396ZM456.943 393.396C455.008 393.396 453.342 392.983 451.944 392.156C450.555 391.321 449.481 390.149 448.723 388.641C447.973 387.124 447.598 385.347 447.598 383.31C447.598 381.298 447.973 379.526 448.723 377.991C449.481 376.457 450.538 375.26 451.893 374.399C453.257 373.538 454.85 373.108 456.674 373.108C457.782 373.108 458.856 373.291 459.896 373.658C460.936 374.024 461.869 374.599 462.696 375.384C463.522 376.168 464.174 377.186 464.652 378.439C465.129 379.683 465.368 381.196 465.368 382.977V384.332H449.758V381.469H461.622C461.622 380.463 461.417 379.572 461.008 378.797C460.599 378.013 460.024 377.395 459.282 376.943C458.549 376.491 457.689 376.266 456.7 376.266C455.626 376.266 454.689 376.53 453.887 377.058C453.095 377.578 452.481 378.26 452.047 379.104C451.62 379.939 451.407 380.847 451.407 381.827V384.064C451.407 385.376 451.637 386.493 452.098 387.413C452.566 388.334 453.218 389.037 454.054 389.523C454.889 390 455.865 390.239 456.981 390.239C457.706 390.239 458.366 390.136 458.963 389.932C459.559 389.719 460.075 389.403 460.51 388.986C460.944 388.568 461.277 388.053 461.507 387.439L465.125 388.091C464.835 389.156 464.315 390.089 463.565 390.891C462.824 391.683 461.89 392.301 460.765 392.744C459.649 393.179 458.375 393.396 456.943 393.396ZM473.431 366.818V393H469.609V366.818H473.431ZM482.396 366.818V393H478.574V366.818H482.396ZM496.001 393.396C494.067 393.396 492.401 392.983 491.003 392.156C489.614 391.321 488.54 390.149 487.781 388.641C487.031 387.124 486.656 385.347 486.656 383.31C486.656 381.298 487.031 379.526 487.781 377.991C488.54 376.457 489.597 375.26 490.952 374.399C492.315 373.538 493.909 373.108 495.733 373.108C496.841 373.108 497.915 373.291 498.955 373.658C499.994 374.024 500.928 374.599 501.754 375.384C502.581 376.168 503.233 377.186 503.71 378.439C504.188 379.683 504.426 381.196 504.426 382.977V384.332H488.817V381.469H500.68C500.68 380.463 500.476 379.572 500.067 378.797C499.658 378.013 499.082 377.395 498.341 376.943C497.608 376.491 496.747 376.266 495.759 376.266C494.685 376.266 493.747 376.53 492.946 377.058C492.153 377.578 491.54 378.26 491.105 379.104C490.679 379.939 490.466 380.847 490.466 381.827V384.064C490.466 385.376 490.696 386.493 491.156 387.413C491.625 388.334 492.277 389.037 493.112 389.523C493.947 390 494.923 390.239 496.04 390.239C496.764 390.239 497.425 390.136 498.021 389.932C498.618 389.719 499.134 389.403 499.568 388.986C500.003 388.568 500.335 388.053 500.565 387.439L504.183 388.091C503.893 389.156 503.374 390.089 502.624 390.891C501.882 391.683 500.949 392.301 499.824 392.744C498.707 393.179 497.433 393.396 496.001 393.396ZM516.018 393.384C514.433 393.384 513.018 392.979 511.774 392.169C510.538 391.351 509.566 390.187 508.859 388.679C508.16 387.162 507.811 385.342 507.811 383.22C507.811 381.098 508.164 379.283 508.872 377.774C509.588 376.266 510.568 375.111 511.812 374.31C513.056 373.509 514.467 373.108 516.044 373.108C517.262 373.108 518.243 373.312 518.984 373.722C519.734 374.122 520.314 374.591 520.723 375.128C521.14 375.665 521.464 376.138 521.694 376.547H521.924V366.818H525.747V393H522.014V389.945H521.694C521.464 390.362 521.132 390.839 520.697 391.376C520.271 391.913 519.683 392.382 518.933 392.783C518.183 393.183 517.211 393.384 516.018 393.384ZM516.862 390.124C517.961 390.124 518.89 389.834 519.649 389.254C520.416 388.666 520.995 387.852 521.387 386.812C521.788 385.773 521.988 384.562 521.988 383.182C521.988 381.818 521.792 380.625 521.4 379.602C521.008 378.58 520.433 377.783 519.674 377.212C518.916 376.641 517.978 376.355 516.862 376.355C515.711 376.355 514.752 376.653 513.985 377.25C513.218 377.847 512.639 378.661 512.247 379.692C511.863 380.723 511.672 381.886 511.672 383.182C511.672 384.494 511.868 385.675 512.26 386.723C512.652 387.771 513.231 388.602 513.998 389.216C514.774 389.821 515.728 390.124 516.862 390.124Z" fill="#3C3C3C"/>
<path d="M364.915 96.8182V123H361.744V100.142H361.591L355.199 104.386V101.165L361.744 96.8182H364.915ZM381.138 123.358C380.064 123.341 378.99 123.136 377.916 122.744C376.842 122.352 375.862 121.692 374.976 120.763C374.089 119.825 373.378 118.56 372.841 116.966C372.304 115.364 372.036 113.352 372.036 110.932C372.036 108.614 372.253 106.56 372.688 104.77C373.122 102.972 373.753 101.459 374.58 100.232C375.406 98.9957 376.403 98.0582 377.571 97.419C378.747 96.7798 380.072 96.4602 381.547 96.4602C383.013 96.4602 384.317 96.7543 385.459 97.3423C386.609 97.9219 387.547 98.7315 388.271 99.7713C388.996 100.811 389.464 102.009 389.678 103.364H386.558C386.268 102.187 385.706 101.212 384.871 100.436C384.036 99.6605 382.928 99.2727 381.547 99.2727C379.518 99.2727 377.92 100.155 376.753 101.919C375.594 103.683 375.01 106.159 375.001 109.347H375.206C375.683 108.622 376.25 108.004 376.906 107.493C377.571 106.973 378.304 106.572 379.105 106.291C379.906 106.01 380.754 105.869 381.649 105.869C383.149 105.869 384.521 106.244 385.766 106.994C387.01 107.736 388.007 108.763 388.757 110.075C389.507 111.379 389.882 112.875 389.882 114.562C389.882 116.182 389.52 117.665 388.795 119.011C388.071 120.349 387.053 121.415 385.74 122.207C384.436 122.991 382.902 123.375 381.138 123.358ZM381.138 120.545C382.212 120.545 383.175 120.277 384.027 119.74C384.888 119.203 385.565 118.483 386.06 117.58C386.563 116.676 386.814 115.67 386.814 114.562C386.814 113.48 386.571 112.496 386.085 111.609C385.608 110.714 384.947 110.003 384.104 109.474C383.268 108.946 382.314 108.682 381.24 108.682C380.43 108.682 379.676 108.844 378.977 109.168C378.278 109.483 377.665 109.918 377.136 110.472C376.616 111.026 376.207 111.661 375.909 112.376C375.611 113.084 375.462 113.83 375.462 114.614C375.462 115.653 375.705 116.625 376.19 117.528C376.685 118.432 377.358 119.161 378.21 119.714C379.071 120.268 380.047 120.545 381.138 120.545ZM427.586 109.909C427.586 112.67 427.087 115.057 426.09 117.068C425.093 119.08 423.725 120.631 421.986 121.722C420.248 122.812 418.262 123.358 416.029 123.358C413.796 123.358 411.81 122.812 410.071 121.722C408.333 120.631 406.965 119.08 405.968 117.068C404.971 115.057 404.472 112.67 404.472 109.909C404.472 107.148 404.971 104.761 405.968 102.75C406.965 100.739 408.333 99.1875 410.071 98.0966C411.81 97.0057 413.796 96.4602 416.029 96.4602C418.262 96.4602 420.248 97.0057 421.986 98.0966C423.725 99.1875 425.093 100.739 426.09 102.75C427.087 104.761 427.586 107.148 427.586 109.909ZM424.517 109.909C424.517 107.642 424.138 105.729 423.38 104.169C422.63 102.609 421.611 101.429 420.324 100.628C419.046 99.8267 417.614 99.4261 416.029 99.4261C414.444 99.4261 413.007 99.8267 411.721 100.628C410.442 101.429 409.424 102.609 408.665 104.169C407.915 105.729 407.54 107.642 407.54 109.909C407.54 112.176 407.915 114.089 408.665 115.649C409.424 117.209 410.442 118.389 411.721 119.19C413.007 119.991 414.444 120.392 416.029 120.392C417.614 120.392 419.046 119.991 420.324 119.19C421.611 118.389 422.63 117.209 423.38 115.649C424.138 114.089 424.517 112.176 424.517 109.909ZM440.485 123.409C438.644 123.409 437.059 122.974 435.729 122.105C434.4 121.236 433.377 120.038 432.661 118.513C431.945 116.987 431.587 115.244 431.587 113.284C431.587 111.29 431.953 109.53 432.686 108.004C433.428 106.47 434.459 105.273 435.78 104.412C437.11 103.543 438.661 103.108 440.434 103.108C441.814 103.108 443.059 103.364 444.167 103.875C445.275 104.386 446.182 105.102 446.89 106.023C447.597 106.943 448.036 108.017 448.206 109.244H445.189C444.959 108.349 444.448 107.557 443.655 106.866C442.871 106.168 441.814 105.818 440.485 105.818C439.309 105.818 438.277 106.125 437.391 106.739C436.513 107.344 435.827 108.2 435.333 109.308C434.847 110.408 434.604 111.699 434.604 113.182C434.604 114.699 434.843 116.02 435.32 117.145C435.806 118.27 436.488 119.143 437.365 119.766C438.252 120.388 439.292 120.699 440.485 120.699C441.269 120.699 441.98 120.562 442.62 120.29C443.259 120.017 443.8 119.625 444.243 119.114C444.686 118.602 445.002 117.989 445.189 117.273H448.206C448.036 118.432 447.614 119.476 446.941 120.405C446.276 121.325 445.394 122.058 444.294 122.604C443.203 123.141 441.934 123.409 440.485 123.409ZM461.157 103.364V105.92H450.98V103.364H461.157ZM453.946 98.6591H456.963V117.375C456.963 118.227 457.087 118.866 457.334 119.293C457.59 119.71 457.914 119.991 458.306 120.136C458.706 120.273 459.128 120.341 459.571 120.341C459.904 120.341 460.176 120.324 460.39 120.29C460.603 120.247 460.773 120.213 460.901 120.188L461.515 122.898C461.31 122.974 461.025 123.051 460.658 123.128C460.292 123.213 459.827 123.256 459.265 123.256C458.412 123.256 457.577 123.072 456.759 122.706C455.949 122.339 455.276 121.781 454.739 121.031C454.211 120.281 453.946 119.335 453.946 118.193V98.6591Z" fill="#737373"/>
<path d="M560.976 96.8182V123H556.233V101.433H556.08L549.956 105.345V100.999L556.463 96.8182H560.976ZM568.582 123L579.717 100.96V100.781H566.793V96.8182H584.626V100.871L573.504 123H568.582ZM621.333 109.909C621.333 112.73 620.804 115.146 619.748 117.158C618.699 119.161 617.267 120.695 615.452 121.76C613.645 122.825 611.596 123.358 609.303 123.358C607.01 123.358 604.956 122.825 603.141 121.76C601.334 120.686 599.902 119.148 598.846 117.145C597.797 115.134 597.273 112.722 597.273 109.909C597.273 107.088 597.797 104.676 598.846 102.673C599.902 100.662 601.334 99.1236 603.141 98.0582C604.956 96.9929 607.01 96.4602 609.303 96.4602C611.596 96.4602 613.645 96.9929 615.452 98.0582C617.267 99.1236 618.699 100.662 619.748 102.673C620.804 104.676 621.333 107.088 621.333 109.909ZM616.564 109.909C616.564 107.923 616.253 106.249 615.631 104.885C615.017 103.513 614.165 102.477 613.074 101.778C611.983 101.071 610.726 100.717 609.303 100.717C607.88 100.717 606.623 101.071 605.532 101.778C604.441 102.477 603.584 103.513 602.962 104.885C602.348 106.249 602.042 107.923 602.042 109.909C602.042 111.895 602.348 113.574 602.962 114.946C603.584 116.31 604.441 117.345 605.532 118.053C606.623 118.751 607.88 119.101 609.303 119.101C610.726 119.101 611.983 118.751 613.074 118.053C614.165 117.345 615.017 116.31 615.631 114.946C616.253 113.574 616.564 111.895 616.564 109.909ZM634.178 123.384C632.217 123.384 630.534 122.953 629.128 122.092C627.73 121.232 626.652 120.043 625.893 118.526C625.143 117 624.768 115.244 624.768 113.259C624.768 111.264 625.152 109.504 625.919 107.979C626.686 106.445 627.768 105.251 629.166 104.399C630.572 103.538 632.234 103.108 634.152 103.108C635.746 103.108 637.156 103.402 638.384 103.99C639.619 104.57 640.604 105.392 641.337 106.457C642.07 107.514 642.487 108.75 642.589 110.165H638.166C637.987 109.219 637.561 108.43 636.888 107.8C636.223 107.161 635.332 106.841 634.216 106.841C633.27 106.841 632.439 107.097 631.723 107.608C631.007 108.111 630.449 108.835 630.048 109.781C629.656 110.727 629.46 111.861 629.46 113.182C629.46 114.52 629.656 115.67 630.048 116.634C630.44 117.588 630.99 118.325 631.697 118.845C632.413 119.357 633.253 119.612 634.216 119.612C634.898 119.612 635.507 119.484 636.044 119.229C636.589 118.964 637.045 118.585 637.412 118.091C637.778 117.597 638.03 116.996 638.166 116.288H642.589C642.479 117.678 642.07 118.909 641.362 119.983C640.655 121.048 639.692 121.884 638.473 122.489C637.254 123.085 635.822 123.384 634.178 123.384ZM656.195 103.364V106.943H644.907V103.364H656.195ZM647.694 98.6591H652.321V117.094C652.321 117.716 652.415 118.193 652.603 118.526C652.799 118.849 653.054 119.071 653.37 119.19C653.685 119.31 654.034 119.369 654.418 119.369C654.708 119.369 654.972 119.348 655.211 119.305C655.458 119.263 655.645 119.224 655.773 119.19L656.553 122.808C656.306 122.893 655.952 122.987 655.492 123.089C655.04 123.192 654.486 123.251 653.83 123.268C652.671 123.303 651.627 123.128 650.698 122.744C649.769 122.352 649.032 121.747 648.486 120.929C647.949 120.111 647.685 119.088 647.694 117.861V98.6591Z" fill="#0F0F0F"/>
<path d="M749.915 96.8182V123H746.744V100.142H746.591L740.199 104.386V101.165L746.744 96.8182H749.915ZM765.831 123.358C764.075 123.358 762.524 123.047 761.178 122.425C759.839 121.794 758.795 120.929 758.045 119.83C757.295 118.722 756.925 117.46 756.933 116.045C756.925 114.937 757.142 113.915 757.585 112.977C758.028 112.031 758.634 111.243 759.401 110.612C760.176 109.973 761.041 109.568 761.996 109.398V109.244C760.743 108.92 759.746 108.217 759.004 107.135C758.263 106.044 757.896 104.804 757.905 103.415C757.896 102.085 758.233 100.896 758.915 99.848C759.597 98.7997 760.534 97.973 761.727 97.3679C762.929 96.7628 764.297 96.4602 765.831 96.4602C767.348 96.4602 768.703 96.7628 769.896 97.3679C771.089 97.973 772.027 98.7997 772.709 99.848C773.399 100.896 773.749 102.085 773.757 103.415C773.749 104.804 773.369 106.044 772.619 107.135C771.878 108.217 770.893 108.92 769.666 109.244V109.398C770.612 109.568 771.464 109.973 772.223 110.612C772.982 111.243 773.587 112.031 774.038 112.977C774.49 113.915 774.72 114.937 774.729 116.045C774.72 117.46 774.337 118.722 773.578 119.83C772.828 120.929 771.784 121.794 770.446 122.425C769.116 123.047 767.578 123.358 765.831 123.358ZM765.831 120.545C767.016 120.545 768.038 120.354 768.899 119.97C769.76 119.587 770.425 119.045 770.893 118.347C771.362 117.648 771.601 116.83 771.609 115.892C771.601 114.903 771.345 114.03 770.842 113.271C770.339 112.513 769.653 111.916 768.784 111.482C767.923 111.047 766.939 110.83 765.831 110.83C764.714 110.83 763.717 111.047 762.839 111.482C761.97 111.916 761.284 112.513 760.781 113.271C760.287 114.03 760.044 114.903 760.053 115.892C760.044 116.83 760.27 117.648 760.73 118.347C761.199 119.045 761.868 119.587 762.737 119.97C763.607 120.354 764.638 120.545 765.831 120.545ZM765.831 108.119C766.768 108.119 767.599 107.932 768.324 107.557C769.057 107.182 769.632 106.658 770.05 105.984C770.467 105.311 770.68 104.523 770.689 103.619C770.68 102.733 770.472 101.962 770.062 101.305C769.653 100.641 769.087 100.129 768.362 99.7713C767.638 99.4048 766.794 99.2216 765.831 99.2216C764.851 99.2216 763.994 99.4048 763.261 99.7713C762.528 100.129 761.962 100.641 761.561 101.305C761.161 101.962 760.964 102.733 760.973 103.619C760.964 104.523 761.165 105.311 761.574 105.984C761.991 106.658 762.567 107.182 763.3 107.557C764.033 107.932 764.876 108.119 765.831 108.119ZM812.304 109.909C812.304 112.67 811.806 115.057 810.809 117.068C809.811 119.08 808.444 120.631 806.705 121.722C804.966 122.812 802.98 123.358 800.748 123.358C798.515 123.358 796.529 122.812 794.79 121.722C793.051 120.631 791.684 119.08 790.686 117.068C789.689 115.057 789.191 112.67 789.191 109.909C789.191 107.148 789.689 104.761 790.686 102.75C791.684 100.739 793.051 99.1875 794.79 98.0966C796.529 97.0057 798.515 96.4602 800.748 96.4602C802.98 96.4602 804.966 97.0057 806.705 98.0966C808.444 99.1875 809.811 100.739 810.809 102.75C811.806 104.761 812.304 107.148 812.304 109.909ZM809.236 109.909C809.236 107.642 808.857 105.729 808.098 104.169C807.348 102.609 806.33 101.429 805.043 100.628C803.765 99.8267 802.333 99.4261 800.748 99.4261C799.162 99.4261 797.726 99.8267 796.439 100.628C795.161 101.429 794.142 102.609 793.384 104.169C792.634 105.729 792.259 107.642 792.259 109.909C792.259 112.176 792.634 114.089 793.384 115.649C794.142 117.209 795.161 118.389 796.439 119.19C797.726 119.991 799.162 120.392 800.748 120.392C802.333 120.392 803.765 119.991 805.043 119.19C806.33 118.389 807.348 117.209 808.098 115.649C808.857 114.089 809.236 112.176 809.236 109.909ZM825.203 123.409C823.363 123.409 821.777 122.974 820.448 122.105C819.118 121.236 818.096 120.038 817.38 118.513C816.664 116.987 816.306 115.244 816.306 113.284C816.306 111.29 816.672 109.53 817.405 108.004C818.147 106.47 819.178 105.273 820.499 104.412C821.828 103.543 823.38 103.108 825.152 103.108C826.533 103.108 827.777 103.364 828.885 103.875C829.993 104.386 830.901 105.102 831.608 106.023C832.316 106.943 832.755 108.017 832.925 109.244H829.908C829.678 108.349 829.167 107.557 828.374 106.866C827.59 106.168 826.533 105.818 825.203 105.818C824.027 105.818 822.996 106.125 822.11 106.739C821.232 107.344 820.546 108.2 820.051 109.308C819.566 110.408 819.323 111.699 819.323 113.182C819.323 114.699 819.561 116.02 820.039 117.145C820.525 118.27 821.206 119.143 822.084 119.766C822.971 120.388 824.01 120.699 825.203 120.699C825.988 120.699 826.699 120.562 827.338 120.29C827.978 120.017 828.519 119.625 828.962 119.114C829.405 118.602 829.721 117.989 829.908 117.273H832.925C832.755 118.432 832.333 119.476 831.659 120.405C830.995 121.325 830.113 122.058 829.013 122.604C827.922 123.141 826.652 123.409 825.203 123.409ZM845.875 103.364V105.92H835.699V103.364H845.875ZM838.665 98.6591H841.682V117.375C841.682 118.227 841.806 118.866 842.053 119.293C842.309 119.71 842.632 119.991 843.025 120.136C843.425 120.273 843.847 120.341 844.29 120.341C844.623 120.341 844.895 120.324 845.108 120.29C845.321 120.247 845.492 120.213 845.62 120.188L846.233 122.898C846.029 122.974 845.743 123.051 845.377 123.128C845.01 123.213 844.546 123.256 843.983 123.256C843.131 123.256 842.296 123.072 841.478 122.706C840.668 122.339 839.995 121.781 839.458 121.031C838.929 120.281 838.665 119.335 838.665 118.193V98.6591Z" fill="#737373"/>
<path d="M950.915 98.8182V125H947.744V102.142H947.591L941.199 106.386V103.165L947.744 98.8182H950.915ZM966.78 98.4602C967.854 98.4687 968.928 98.6733 970.001 99.0739C971.075 99.4744 972.055 100.139 972.942 101.068C973.828 101.989 974.54 103.246 975.077 104.839C975.614 106.433 975.882 108.432 975.882 110.835C975.882 113.162 975.661 115.229 975.217 117.036C974.783 118.834 974.152 120.351 973.325 121.587C972.507 122.822 971.51 123.76 970.334 124.399C969.166 125.038 967.845 125.358 966.371 125.358C964.905 125.358 963.597 125.068 962.446 124.489C961.304 123.901 960.366 123.087 959.634 122.047C958.909 120.999 958.445 119.784 958.24 118.403H961.359C961.641 119.605 962.199 120.598 963.034 121.382C963.878 122.158 964.99 122.545 966.371 122.545C968.391 122.545 969.984 121.663 971.152 119.899C972.328 118.135 972.916 115.642 972.916 112.42H972.712C972.234 113.136 971.668 113.754 971.011 114.274C970.355 114.794 969.626 115.195 968.825 115.476C968.024 115.757 967.172 115.898 966.268 115.898C964.768 115.898 963.392 115.527 962.139 114.786C960.895 114.036 959.898 113.009 959.148 111.705C958.406 110.392 958.036 108.892 958.036 107.205C958.036 105.602 958.393 104.136 959.109 102.807C959.834 101.469 960.848 100.403 962.152 99.6108C963.464 98.8182 965.007 98.4347 966.78 98.4602ZM966.78 101.273C965.706 101.273 964.739 101.541 963.878 102.078C963.026 102.607 962.348 103.322 961.845 104.226C961.351 105.121 961.104 106.114 961.104 107.205C961.104 108.295 961.342 109.288 961.82 110.183C962.305 111.07 962.966 111.777 963.801 112.305C964.645 112.825 965.604 113.085 966.678 113.085C967.487 113.085 968.241 112.928 968.94 112.612C969.639 112.288 970.249 111.849 970.768 111.295C971.297 110.733 971.71 110.098 972.009 109.391C972.307 108.675 972.456 107.929 972.456 107.153C972.456 106.131 972.209 105.172 971.714 104.277C971.229 103.382 970.555 102.658 969.695 102.104C968.842 101.55 967.871 101.273 966.78 101.273ZM1013.59 111.909C1013.59 114.67 1013.09 117.057 1012.09 119.068C1011.09 121.08 1009.72 122.631 1007.99 123.722C1006.25 124.812 1004.26 125.358 1002.03 125.358C999.796 125.358 997.81 124.812 996.071 123.722C994.333 122.631 992.965 121.08 991.968 119.068C990.971 117.057 990.472 114.67 990.472 111.909C990.472 109.148 990.971 106.761 991.968 104.75C992.965 102.739 994.333 101.188 996.071 100.097C997.81 99.0057 999.796 98.4602 1002.03 98.4602C1004.26 98.4602 1006.25 99.0057 1007.99 100.097C1009.72 101.188 1011.09 102.739 1012.09 104.75C1013.09 106.761 1013.59 109.148 1013.59 111.909ZM1010.52 111.909C1010.52 109.642 1010.14 107.729 1009.38 106.169C1008.63 104.609 1007.61 103.429 1006.32 102.628C1005.05 101.827 1003.61 101.426 1002.03 101.426C1000.44 101.426 999.007 101.827 997.721 102.628C996.442 103.429 995.424 104.609 994.665 106.169C993.915 107.729 993.54 109.642 993.54 111.909C993.54 114.176 993.915 116.089 994.665 117.649C995.424 119.209 996.442 120.389 997.721 121.19C999.007 121.991 1000.44 122.392 1002.03 122.392C1003.61 122.392 1005.05 121.991 1006.32 121.19C1007.61 120.389 1008.63 119.209 1009.38 117.649C1010.14 116.089 1010.52 114.176 1010.52 111.909ZM1026.48 125.409C1024.64 125.409 1023.06 124.974 1021.73 124.105C1020.4 123.236 1019.38 122.038 1018.66 120.513C1017.94 118.987 1017.59 117.244 1017.59 115.284C1017.59 113.29 1017.95 111.53 1018.69 110.004C1019.43 108.47 1020.46 107.273 1021.78 106.412C1023.11 105.543 1024.66 105.108 1026.43 105.108C1027.81 105.108 1029.06 105.364 1030.17 105.875C1031.27 106.386 1032.18 107.102 1032.89 108.023C1033.6 108.943 1034.04 110.017 1034.21 111.244H1031.19C1030.96 110.349 1030.45 109.557 1029.66 108.866C1028.87 108.168 1027.81 107.818 1026.48 107.818C1025.31 107.818 1024.28 108.125 1023.39 108.739C1022.51 109.344 1021.83 110.2 1021.33 111.308C1020.85 112.408 1020.6 113.699 1020.6 115.182C1020.6 116.699 1020.84 118.02 1021.32 119.145C1021.81 120.27 1022.49 121.143 1023.37 121.766C1024.25 122.388 1025.29 122.699 1026.48 122.699C1027.27 122.699 1027.98 122.562 1028.62 122.29C1029.26 122.017 1029.8 121.625 1030.24 121.114C1030.69 120.602 1031 119.989 1031.19 119.273H1034.21C1034.04 120.432 1033.61 121.476 1032.94 122.405C1032.28 123.325 1031.39 124.058 1030.29 124.604C1029.2 125.141 1027.93 125.409 1026.48 125.409ZM1047.16 105.364V107.92H1036.98V105.364H1047.16ZM1039.95 100.659H1042.96V119.375C1042.96 120.227 1043.09 120.866 1043.33 121.293C1043.59 121.71 1043.91 121.991 1044.31 122.136C1044.71 122.273 1045.13 122.341 1045.57 122.341C1045.9 122.341 1046.18 122.324 1046.39 122.29C1046.6 122.247 1046.77 122.213 1046.9 122.188L1047.51 124.898C1047.31 124.974 1047.02 125.051 1046.66 125.128C1046.29 125.213 1045.83 125.256 1045.26 125.256C1044.41 125.256 1043.58 125.072 1042.76 124.706C1041.95 124.339 1041.28 123.781 1040.74 123.031C1040.21 122.281 1039.95 121.335 1039.95 120.193V100.659Z" fill="#737373"/>
</g>
<g filter="url(#filter1_d_826_43)">
<rect x="36" y="182" width="245" height="100" fill="white"/>
<rect x="36.5" y="182.5" width="244" height="99" stroke="#E5E5E5"/>
<path d="M78.8764 245V218.818H88.2088C90.2372 218.818 91.9205 219.168 93.2585 219.866C94.6051 220.565 95.6108 221.533 96.2756 222.768C96.9403 223.996 97.2727 225.415 97.2727 227.026C97.2727 228.628 96.9361 230.038 96.2628 231.257C95.598 232.467 94.5923 233.409 93.2457 234.082C91.9077 234.756 90.2244 235.092 88.196 235.092H81.1264V231.692H87.8381C89.1165 231.692 90.1563 231.509 90.9574 231.142C91.767 230.776 92.3594 230.243 92.7344 229.544C93.1094 228.845 93.2969 228.006 93.2969 227.026C93.2969 226.037 93.1051 225.18 92.7216 224.456C92.3466 223.732 91.7543 223.178 90.9446 222.794C90.1435 222.402 89.0909 222.206 87.7869 222.206H82.8267V245H78.8764ZM91.8011 233.188L98.2699 245H93.7699L87.429 233.188H91.8011ZM109.798 245.396C107.957 245.396 106.35 244.974 104.978 244.131C103.606 243.287 102.541 242.107 101.782 240.589C101.024 239.072 100.645 237.3 100.645 235.271C100.645 233.234 101.024 231.453 101.782 229.928C102.541 228.402 103.606 227.217 104.978 226.374C106.35 225.53 107.957 225.108 109.798 225.108C111.639 225.108 113.245 225.53 114.618 226.374C115.99 227.217 117.055 228.402 117.814 229.928C118.572 231.453 118.951 233.234 118.951 235.271C118.951 237.3 118.572 239.072 117.814 240.589C117.055 242.107 115.99 243.287 114.618 244.131C113.245 244.974 111.639 245.396 109.798 245.396ZM109.811 242.188C111.004 242.188 111.993 241.872 112.777 241.241C113.561 240.611 114.14 239.771 114.515 238.723C114.899 237.675 115.091 236.52 115.091 235.259C115.091 234.006 114.899 232.855 114.515 231.807C114.14 230.75 113.561 229.902 112.777 229.263C111.993 228.624 111.004 228.304 109.811 228.304C108.609 228.304 107.612 228.624 106.819 229.263C106.035 229.902 105.451 230.75 105.068 231.807C104.693 232.855 104.505 234.006 104.505 235.259C104.505 236.52 104.693 237.675 105.068 238.723C105.451 239.771 106.035 240.611 106.819 241.241C107.612 241.872 108.609 242.188 109.811 242.188ZM131.489 245.396C129.648 245.396 128.042 244.974 126.67 244.131C125.298 243.287 124.232 242.107 123.474 240.589C122.715 239.072 122.336 237.3 122.336 235.271C122.336 233.234 122.715 231.453 123.474 229.928C124.232 228.402 125.298 227.217 126.67 226.374C128.042 225.53 129.648 225.108 131.489 225.108C133.33 225.108 134.937 225.53 136.309 226.374C137.681 227.217 138.746 228.402 139.505 229.928C140.263 231.453 140.643 233.234 140.643 235.271C140.643 237.3 140.263 239.072 139.505 240.589C138.746 242.107 137.681 243.287 136.309 244.131C134.937 244.974 133.33 245.396 131.489 245.396ZM131.502 242.188C132.695 242.188 133.684 241.872 134.468 241.241C135.252 240.611 135.832 239.771 136.207 238.723C136.59 237.675 136.782 236.52 136.782 235.259C136.782 234.006 136.59 232.855 136.207 231.807C135.832 230.75 135.252 229.902 134.468 229.263C133.684 228.624 132.695 228.304 131.502 228.304C130.3 228.304 129.303 228.624 128.511 229.263C127.727 229.902 127.143 230.75 126.759 231.807C126.384 232.855 126.197 234.006 126.197 235.259C126.197 236.52 126.384 237.675 126.759 238.723C127.143 239.771 127.727 240.611 128.511 241.241C129.303 241.872 130.3 242.188 131.502 242.188ZM144.909 245V225.364H148.578V228.56H148.821C149.23 227.477 149.9 226.634 150.828 226.028C151.757 225.415 152.87 225.108 154.165 225.108C155.478 225.108 156.577 225.415 157.463 226.028C158.358 226.642 159.019 227.486 159.445 228.56H159.65C160.118 227.511 160.864 226.676 161.887 226.054C162.909 225.423 164.128 225.108 165.543 225.108C167.324 225.108 168.777 225.666 169.902 226.783C171.036 227.899 171.603 229.582 171.603 231.832V245H167.78V232.19C167.78 230.861 167.418 229.898 166.694 229.301C165.969 228.705 165.104 228.406 164.098 228.406C162.854 228.406 161.887 228.79 161.196 229.557C160.506 230.315 160.161 231.291 160.161 232.484V245H156.351V231.947C156.351 230.882 156.019 230.026 155.354 229.378C154.689 228.73 153.824 228.406 152.759 228.406C152.034 228.406 151.365 228.598 150.752 228.982C150.147 229.357 149.657 229.881 149.282 230.554C148.915 231.227 148.732 232.007 148.732 232.893V245H144.909ZM195.343 245.358C194.175 245.341 193.025 245.128 191.891 244.719C190.766 244.31 189.743 243.628 188.823 242.673C187.902 241.719 187.165 240.436 186.611 238.825C186.066 237.214 185.793 235.203 185.793 232.791C185.793 230.507 186.019 228.479 186.471 226.706C186.931 224.933 187.591 223.438 188.452 222.219C189.313 220.991 190.353 220.058 191.571 219.419C192.79 218.78 194.158 218.46 195.675 218.46C197.235 218.46 198.62 218.767 199.83 219.381C201.04 219.994 202.02 220.842 202.77 221.925C203.529 223.007 204.01 224.239 204.215 225.619H200.316C200.051 224.528 199.527 223.638 198.743 222.947C197.959 222.257 196.936 221.912 195.675 221.912C193.757 221.912 192.262 222.747 191.188 224.418C190.123 226.088 189.586 228.411 189.577 231.385H189.769C190.221 230.643 190.775 230.013 191.431 229.493C192.096 228.964 192.837 228.56 193.655 228.278C194.482 227.989 195.351 227.844 196.263 227.844C197.78 227.844 199.152 228.214 200.38 228.956C201.615 229.689 202.6 230.703 203.333 231.999C204.066 233.294 204.432 234.777 204.432 236.447C204.432 238.118 204.053 239.631 203.294 240.986C202.544 242.341 201.488 243.415 200.124 244.207C198.76 244.991 197.167 245.375 195.343 245.358ZM195.33 242.034C196.336 242.034 197.235 241.787 198.027 241.293C198.82 240.798 199.446 240.134 199.907 239.298C200.367 238.463 200.597 237.53 200.597 236.499C200.597 235.493 200.371 234.577 199.919 233.75C199.476 232.923 198.863 232.267 198.078 231.781C197.303 231.295 196.417 231.053 195.419 231.053C194.661 231.053 193.958 231.197 193.31 231.487C192.671 231.777 192.108 232.178 191.623 232.689C191.137 233.2 190.753 233.788 190.472 234.453C190.199 235.109 190.063 235.804 190.063 236.537C190.063 237.517 190.289 238.425 190.74 239.26C191.201 240.095 191.827 240.768 192.62 241.28C193.421 241.783 194.324 242.034 195.33 242.034ZM219.022 218.818V245H215.059V222.781H214.906L208.641 226.872V223.088L215.174 218.818H219.022ZM236.038 218.818V245H232.075V222.781H231.921L225.657 226.872V223.088L232.19 218.818H236.038Z" fill="#0F0F0F"/>
</g>
<g filter="url(#filter2_d_826_43)">
<rect x="36" y="330" width="250" height="100" fill="white"/>
<rect x="36.5" y="330.5" width="249" height="99" stroke="#E5E5E5"/>
<path d="M78.8764 393V366.818H88.2088C90.2372 366.818 91.9205 367.168 93.2585 367.866C94.6051 368.565 95.6108 369.533 96.2756 370.768C96.9403 371.996 97.2727 373.415 97.2727 375.026C97.2727 376.628 96.9361 378.038 96.2628 379.257C95.598 380.467 94.5923 381.409 93.2457 382.082C91.9077 382.756 90.2244 383.092 88.196 383.092H81.1264V379.692H87.8381C89.1165 379.692 90.1563 379.509 90.9574 379.142C91.767 378.776 92.3594 378.243 92.7344 377.544C93.1094 376.845 93.2969 376.006 93.2969 375.026C93.2969 374.037 93.1051 373.18 92.7216 372.456C92.3466 371.732 91.7543 371.178 90.9446 370.794C90.1435 370.402 89.0909 370.206 87.7869 370.206H82.8267V393H78.8764ZM91.8011 381.188L98.2699 393H93.7699L87.429 381.188H91.8011ZM109.798 393.396C107.957 393.396 106.35 392.974 104.978 392.131C103.606 391.287 102.541 390.107 101.782 388.589C101.024 387.072 100.645 385.3 100.645 383.271C100.645 381.234 101.024 379.453 101.782 377.928C102.541 376.402 103.606 375.217 104.978 374.374C106.35 373.53 107.957 373.108 109.798 373.108C111.639 373.108 113.245 373.53 114.618 374.374C115.99 375.217 117.055 376.402 117.814 377.928C118.572 379.453 118.951 381.234 118.951 383.271C118.951 385.3 118.572 387.072 117.814 388.589C117.055 390.107 115.99 391.287 114.618 392.131C113.245 392.974 111.639 393.396 109.798 393.396ZM109.811 390.188C111.004 390.188 111.993 389.872 112.777 389.241C113.561 388.611 114.14 387.771 114.515 386.723C114.899 385.675 115.091 384.52 115.091 383.259C115.091 382.006 114.899 380.855 114.515 379.807C114.14 378.75 113.561 377.902 112.777 377.263C111.993 376.624 111.004 376.304 109.811 376.304C108.609 376.304 107.612 376.624 106.819 377.263C106.035 377.902 105.451 378.75 105.068 379.807C104.693 380.855 104.505 382.006 104.505 383.259C104.505 384.52 104.693 385.675 105.068 386.723C105.451 387.771 106.035 388.611 106.819 389.241C107.612 389.872 108.609 390.188 109.811 390.188ZM131.489 393.396C129.648 393.396 128.042 392.974 126.67 392.131C125.298 391.287 124.232 390.107 123.474 388.589C122.715 387.072 122.336 385.3 122.336 383.271C122.336 381.234 122.715 379.453 123.474 377.928C124.232 376.402 125.298 375.217 126.67 374.374C128.042 373.53 129.648 373.108 131.489 373.108C133.33 373.108 134.937 373.53 136.309 374.374C137.681 375.217 138.746 376.402 139.505 377.928C140.263 379.453 140.643 381.234 140.643 383.271C140.643 385.3 140.263 387.072 139.505 388.589C138.746 390.107 137.681 391.287 136.309 392.131C134.937 392.974 133.33 393.396 131.489 393.396ZM131.502 390.188C132.695 390.188 133.684 389.872 134.468 389.241C135.252 388.611 135.832 387.771 136.207 386.723C136.59 385.675 136.782 384.52 136.782 383.259C136.782 382.006 136.59 380.855 136.207 379.807C135.832 378.75 135.252 377.902 134.468 377.263C133.684 376.624 132.695 376.304 131.502 376.304C130.3 376.304 129.303 376.624 128.511 377.263C127.727 377.902 127.143 378.75 126.759 379.807C126.384 380.855 126.197 382.006 126.197 383.259C126.197 384.52 126.384 385.675 126.759 386.723C127.143 387.771 127.727 388.611 128.511 389.241C129.303 389.872 130.3 390.188 131.502 390.188ZM144.909 393V373.364H148.578V376.56H148.821C149.23 375.477 149.9 374.634 150.828 374.028C151.757 373.415 152.87 373.108 154.165 373.108C155.478 373.108 156.577 373.415 157.463 374.028C158.358 374.642 159.019 375.486 159.445 376.56H159.65C160.118 375.511 160.864 374.676 161.887 374.054C162.909 373.423 164.128 373.108 165.543 373.108C167.324 373.108 168.777 373.666 169.902 374.783C171.036 375.899 171.603 377.582 171.603 379.832V393H167.78V380.19C167.78 378.861 167.418 377.898 166.694 377.301C165.969 376.705 165.104 376.406 164.098 376.406C162.854 376.406 161.887 376.79 161.196 377.557C160.506 378.315 160.161 379.291 160.161 380.484V393H156.351V379.947C156.351 378.882 156.019 378.026 155.354 377.378C154.689 376.73 153.824 376.406 152.759 376.406C152.034 376.406 151.365 376.598 150.752 376.982C150.147 377.357 149.657 377.881 149.282 378.554C148.915 379.227 148.732 380.007 148.732 380.893V393H144.909ZM195.343 393.358C194.175 393.341 193.025 393.128 191.891 392.719C190.766 392.31 189.743 391.628 188.823 390.673C187.902 389.719 187.165 388.436 186.611 386.825C186.066 385.214 185.793 383.203 185.793 380.791C185.793 378.507 186.019 376.479 186.471 374.706C186.931 372.933 187.591 371.438 188.452 370.219C189.313 368.991 190.353 368.058 191.571 367.419C192.79 366.78 194.158 366.46 195.675 366.46C197.235 366.46 198.62 366.767 199.83 367.381C201.04 367.994 202.02 368.842 202.77 369.925C203.529 371.007 204.01 372.239 204.215 373.619H200.316C200.051 372.528 199.527 371.638 198.743 370.947C197.959 370.257 196.936 369.912 195.675 369.912C193.757 369.912 192.262 370.747 191.188 372.418C190.123 374.088 189.586 376.411 189.577 379.385H189.769C190.221 378.643 190.775 378.013 191.431 377.493C192.096 376.964 192.837 376.56 193.655 376.278C194.482 375.989 195.351 375.844 196.263 375.844C197.78 375.844 199.152 376.214 200.38 376.956C201.615 377.689 202.6 378.703 203.333 379.999C204.066 381.294 204.432 382.777 204.432 384.447C204.432 386.118 204.053 387.631 203.294 388.986C202.544 390.341 201.488 391.415 200.124 392.207C198.76 392.991 197.167 393.375 195.343 393.358ZM195.33 390.034C196.336 390.034 197.235 389.787 198.027 389.293C198.82 388.798 199.446 388.134 199.907 387.298C200.367 386.463 200.597 385.53 200.597 384.499C200.597 383.493 200.371 382.577 199.919 381.75C199.476 380.923 198.863 380.267 198.078 379.781C197.303 379.295 196.417 379.053 195.419 379.053C194.661 379.053 193.958 379.197 193.31 379.487C192.671 379.777 192.108 380.178 191.623 380.689C191.137 381.2 190.753 381.788 190.472 382.453C190.199 383.109 190.063 383.804 190.063 384.537C190.063 385.517 190.289 386.425 190.74 387.26C191.201 388.095 191.827 388.768 192.62 389.28C193.421 389.783 194.324 390.034 195.33 390.034ZM219.022 366.818V393H215.059V370.781H214.906L208.641 374.872V371.088L215.174 366.818H219.022ZM226.104 393V390.136L234.964 380.957C235.91 379.96 236.69 379.087 237.303 378.337C237.925 377.578 238.39 376.858 238.697 376.176C239.004 375.494 239.157 374.77 239.157 374.003C239.157 373.134 238.952 372.384 238.543 371.753C238.134 371.114 237.576 370.624 236.869 370.283C236.161 369.933 235.364 369.759 234.478 369.759C233.54 369.759 232.722 369.95 232.023 370.334C231.325 370.717 230.788 371.259 230.413 371.957C230.038 372.656 229.85 373.474 229.85 374.412H226.079C226.079 372.818 226.445 371.425 227.178 370.232C227.911 369.038 228.917 368.114 230.195 367.457C231.474 366.793 232.927 366.46 234.555 366.46C236.2 366.46 237.648 366.788 238.901 367.445C240.163 368.092 241.147 368.979 241.854 370.104C242.562 371.22 242.915 372.482 242.915 373.888C242.915 374.859 242.732 375.81 242.366 376.739C242.008 377.668 241.381 378.703 240.487 379.845C239.592 380.979 238.347 382.355 236.754 383.974L231.55 389.42V389.612H243.337V393H226.104Z" fill="#0F0F0F"/>
</g>
<defs>
<filter id="filter0_d_826_43" x="195" y="0" width="1101" height="664" filterUnits="userSpaceOnUse" color-interpolation-filters="sRGB">
<feFlood flood-opacity="0" result="BackgroundImageFix"/>
<feColorMatrix in="SourceAlpha" type="matrix" values="0 0 0 0 0 0 0 0 0 0 0 0 0 0 0 0 0 0 127 0" result="hardAlpha"/>
<feOffset dx="-4" dy="6"/>
<feGaussianBlur stdDeviation="16"/>
<feComposite in2="hardAlpha" operator="out"/>
<feColorMatrix type="matrix" values="0 0 0 0 0 0 0 0 0 0 0 0 0 0 0 0 0 0 0.08 0"/>
<feBlend mode="normal" in2="BackgroundImageFix" result="effect1_dropShadow_826_43"/>
<feBlend mode="normal" in="SourceGraphic" in2="effect1_dropShadow_826_43" result="shape"/>
</filter>
<filter id="filter1_d_826_43" x="0" y="156" width="309" height="164" filterUnits="userSpaceOnUse" color-interpolation-filters="sRGB">
<feFlood flood-opacity="0" result="BackgroundImageFix"/>
<feColorMatrix in="SourceAlpha" type="matrix" values="0 0 0 0 0 0 0 0 0 0 0 0 0 0 0 0 0 0 127 0" result="hardAlpha"/>
<feOffset dx="-4" dy="6"/>
<feGaussianBlur stdDeviation="16"/>
<feComposite in2="hardAlpha" operator="out"/>
<feColorMatrix type="matrix" values="0 0 0 0 0 0 0 0 0 0 0 0 0 0 0 0 0 0 0.08 0"/>
<feBlend mode="normal" in2="BackgroundImageFix" result="effect1_dropShadow_826_43"/>
<feBlend mode="normal" in="SourceGraphic" in2="effect1_dropShadow_826_43" result="shape"/>
</filter>
<filter id="filter2_d_826_43" x="0" y="304" width="314" height="164" filterUnits="userSpaceOnUse" color-interpolation-filters="sRGB">
<feFlood flood-opacity="0" result="BackgroundImageFix"/>
<feColorMatrix in="SourceAlpha" type="matrix" values="0 0 0 0 0 0 0 0 0 0 0 0 0 0 0 0 0 0 127 0" result="hardAlpha"/>
<feOffset dx="-4" dy="6"/>
<feGaussianBlur stdDeviation="16"/>
<feComposite in2="hardAlpha" operator="out"/>
<feColorMatrix type="matrix" values="0 0 0 0 0 0 0 0 0 0 0 0 0 0 0 0 0 0 0.08 0"/>
<feBlend mode="normal" in2="BackgroundImageFix" result="effect1_dropShadow_826_43"/>
<feBlend mode="normal" in="SourceGraphic" in2="effect1_dropShadow_826_43" result="shape"/>
</filter>
<linearGradient id="paint0_linear_826_43" x1="0" y1="50" x2="951" y2="50" gradientUnits="userSpaceOnUse">
<stop stop-color="#0F766E"/>
<stop offset="1" stop-color="#CCFBF1"/>
</linearGradient>
</defs>
</svg>
